<?xml version="1.0" encoding="utf-8"?>
<!-- Generator: Adobe Illustrator 23.1.0, SVG Export Plug-In . SVG Version: 6.00 Build 0)  -->
<svg version="1.1" id="Layer_1" xmlns="http://www.w3.org/2000/svg" xmlns:xlink="http://www.w3.org/1999/xlink" x="0px" y="0px"
	 viewBox="0 0 76 21" style="enable-background:new 0 0 76 21;" xml:space="preserve">
<style type="text/css">
	.st0{fill-rule:evenodd;clip-rule:evenodd;fill:#EEEEEE;}
</style>
<g>
	<g>
		<g>
			<g>
				<path class="st0" d="M75.4,6.1h-3.5V0.9h-3.4v19.5h2.9c0.3-1.2,0.4-3.1,0.4-4.7V8.9h3.5L75.4,6.1L75.4,6.1z M55.1,1.3V4h4v1.3
					c0,3.5-0.7,5.7-4.3,7.3l1.4,2.4c2.1-0.8,4-2.2,4.9-4.1c0.9,1.8,2.8,3.2,4.6,3.9l1.6-2.8c-3.5-1.3-4.7-3.4-4.7-6.7V4h3.9V1.3
					L55.1,1.3L55.1,1.3z M53.1,17.6H42.8c-0.3,0-0.4-0.1-0.4-0.4v-4.1h-3.5v5.5c0,1.2,0.6,1.8,1.8,1.8h12.4L53.1,17.6L53.1,17.6z
					 M52.7,0.9h-3.5v4h-3.3v2.9h3.3V15h3.1c0.3-1,0.4-2.6,0.4-3.8V0.9L52.7,0.9z M35.4,1.3v2.8h3.8v0.7c0,2.9-1.2,4.4-4.3,5.3
					l1.2,2.6c2.1-0.5,4.2-1.8,5.1-3.5c0.9,1.7,2.9,2.9,4.8,3.4l1.5-3c-2.7-0.6-4.7-2.1-4.7-4.9V4.1h3.8V1.3
					C46.6,1.3,35.4,1.3,35.4,1.3z M6.4,20h8.1v-3.6H5.3v-15H0.9V20H6.4z M24,12.9h3.6v3.3c-0.7,0.3-1.9,0.5-3.2,0.5
					c-4,0-5.3-2-5.3-6.1c0-3.9,1.3-6.2,5.2-6.2c2.2,0,3.5,0.7,4.5,2L31.6,4c-1.7-2.4-4.6-3.1-7.3-3.1c-6.1,0-9.4,3.3-9.4,9.7
					c0,6.4,2.9,9.8,9.4,9.8c2.9,0,5.8-0.8,7.4-1.8V9.4H24V12.9z"/>
			</g>
		</g>
	</g>
</g>
</svg>
